HIERARCHY
ROOT root
{
	OFFSET	0	13.1	24.9
	CHANNELS 6  Xposition Yposition Zposition Xrotation Yrotation Zrotation
	JOINT spine_1
	{
		OFFSET	0	9.99999	0
		CHANNELS 3  Xrotation Yrotation Zrotation
		JOINT spine_2
		{
			OFFSET	0	112	-10
			CHANNELS 3  Xrotation Yrotation Zrotation
			JOINT spine_3
			{
				OFFSET	0	206.5	19.3
				CHANNELS 3  Xrotation Yrotation Zrotation
				JOINT spine_4
				{
					OFFSET	0	110.4	14.6
					CHANNELS 3  Xrotation Yrotation Zrotation
					JOINT neck_1
					{
						OFFSET	0	71.8	-50.3
						CHANNELS 3  Xrotation Yrotation Zrotation
						JOINT neck_2
						{
							OFFSET	0	86.2	-25.8
							CHANNELS 3  Xrotation Yrotation Zrotation
							JOINT head_ee
							{
								OFFSET	0	179.8	-8.7
								CHANNELS 3  Xrotation Yrotation Zrotation
								End Site
								{
									OFFSET	1	0	0
								}
							}
						}
					}
					JOINT left_clavicle
					{
						OFFSET	-43.2	22.4	-70.8
						CHANNELS 3  Xrotation Yrotation Zrotation
						JOINT left_shoulder
						{
							OFFSET	-93.9	-5.79999	48.7
							CHANNELS 3  Xrotation Yrotation Zrotation
							JOINT left_elbow
							{
								OFFSET	-291.4	-30.8	15.2
								CHANNELS 3  Xrotation Yrotation Zrotation
								JOINT left_lowarm_twist
								{
									OFFSET	-110.7	-3.89999	13.6
									CHANNELS 3  Xrotation Yrotation Zrotation
									JOINT left_hand
									{
										OFFSET	-110.7	-3.89999	13.6
										CHANNELS 3  Xrotation Yrotation Zrotation
										JOINT left_ee
										{
											OFFSET	-80.8	-5.10001	12.1
											CHANNELS 3  Xrotation Yrotation Zrotation
											End Site
											{
												OFFSET	1	0	0
											}
										}
									}
								}
							}
						}
					}
					JOINT right_clavicle
					{
						OFFSET	43.2	22.4	-70.8
						CHANNELS 3  Xrotation Yrotation Zrotation
						JOINT right_shoulder
						{
							OFFSET	93.9	-5.79999	48.7
							CHANNELS 3  Xrotation Yrotation Zrotation
							JOINT right_elbow
							{
								OFFSET	291.4	-30.8	15.2
								CHANNELS 3  Xrotation Yrotation Zrotation
								JOINT right_lowarm_twist
								{
									OFFSET	110.7	-3.89999	13.6
									CHANNELS 3  Xrotation Yrotation Zrotation
									JOINT right_hand
									{
										OFFSET	110.7	-3.89999	13.6
										CHANNELS 3  Xrotation Yrotation Zrotation
										JOINT right_ee
										{
											OFFSET	80.8	-5.10001	12.1
											CHANNELS 3  Xrotation Yrotation Zrotation
											End Site
											{
												OFFSET	1	0	0
											}
										}
									}
								}
							}
						}
					}
				}
			}
		}
	}
	JOINT left_hip
	{
		OFFSET	-82.8	-127.5	0.300001
		CHANNELS 3  Xrotation Yrotation Zrotation
		JOINT left_knee
		{
			OFFSET	-28.2	-396.7	2.2
			CHANNELS 3  Xrotation Yrotation Zrotation
			JOINT left_ankle
			{
				OFFSET	-11.7	-411.3	35.4
				CHANNELS 3  Xrotation Yrotation Zrotation
				JOINT left_toes
				{
					OFFSET	0	-60	-88.6
					CHANNELS 3  Xrotation Yrotation Zrotation
					JOINT left_foot_ee
					{
						OFFSET	-22.5	-16.5	-42.2
						CHANNELS 3  Xrotation Yrotation Zrotation
						End Site
						{
							OFFSET	1	0	0
						}
					}
				}
			}
		}
	}
	JOINT right_hip
	{
		OFFSET	82.8	-127.5	0.300001
		CHANNELS 3  Xrotation Yrotation Zrotation
		JOINT right_knee
		{
			OFFSET	28.2	-396.7	2.2
			CHANNELS 3  Xrotation Yrotation Zrotation
			JOINT right_ankle
			{
				OFFSET	11.7	-411.3	35.4
				CHANNELS 3  Xrotation Yrotation Zrotation
				JOINT right_toes
				{
					OFFSET	0	-60	-88.6
					CHANNELS 3  Xrotation Yrotation Zrotation
					JOINT right_foot_ee
					{
						OFFSET	22.5	-16.5	-42.2
						CHANNELS 3  Xrotation Yrotation Zrotation
						End Site
						{
							OFFSET	1	0	0
						}
					}
				}
			}
		}
	}
}
MOTION
Frames: 5
Frame Time: 0.02
1119.88 716.465 -534.366 7.83995 -59.4776 22.4172 -0.627094 -1.0163 -5.85798 -0.608244 -0.642155 -5.91053 -0.528514 0.670172 -5.90743 -0.577074 -0.269507 -5.93909 -11.6822 -9.28624 -4.10865 -11.749 -14.9373 -6.52948 -0.0 0.0 -0.0 4.48937 -28.6851 6.46891 0.401202 -32.8062 83.3792 0.232809 -6.57884 0.0133806 -12.2254 -0.587468 1.44555 0.521655 2.37027 4.45955 -0.0 0.0 -0.0 -4.1588 -3.2601 7.44751 3.356 17.2418 -63.0178 1.10786 28.7572 -0.284017 51.0461 1.04471 6.2237 -4.56475 -7.47498 27.6742 0.0 0.0 0.0 7.18396 -28.8951 -16.9679 -32.695 -0.0685587 4.94963 42.8741 22.8767 -5.36568 36.0106 -0.0 -0.0 -0.0 0.0 -0.0 -3.54538 -19.4315 -23.7945 -15.2779 -0.321986 -2.31552 33.2185 22.0594 4.77042 -38.1617 0.0 0.0 0.0 0.0 0.0 
1123.95 717.738 -542.588 6.16174 -59.0776 20.9241 -0.315954 -1.00214 -5.83513 -0.297244 -0.629466 -5.88683 -0.220835 0.645692 -5.88508 -0.269012 -0.290172 -5.91318 -10.5916 -9.568 -4.86617 -10.6137 -14.8252 -7.1951 -0.0 0.0 -0.0 4.5961 -27.3682 6.84183 -0.812512 -32.4335 83.8882 0.184571 -5.22422 0.00842039 -11.8372 -0.564121 1.4017 0.794809 3.47379 6.72331 -0.0 0.0 -0.0 -4.52183 -3.41912 8.10902 3.31987 16.4466 -61.0077 1.17121 30.1206 -0.315158 49.2926 0.918637 6.03793 -4.60969 -6.37055 28.7016 0.0 0.0 0.0 9.53857 -25.4778 -16.2217 -32.1318 -0.0434743 4.86686 42.0293 18.9858 -5.18774 36.7997 -0.0 -0.0 -0.0 0.0 -0.0 -4.14325 -19.3204 -22.9529 -14.6799 -0.321064 -2.22378 33.5055 22.3644 4.81496 -38.8542 0.0 0.0 0.0 0.0 0.0 
1133.99 715.05 -548.367 5.94029 -58.2462 20.9243 -0.225659 -0.970395 -5.92605 -0.20633 -0.592029 -5.97554 -0.133106 0.69238 -5.96479 -0.182625 -0.256585 -5.99923 -11.6971 -10.9611 -5.69761 -11.7564 -17.0926 -8.52152 -0.0 0.0 -0.0 4.34072 -28.3371 6.18368 -1.82636 -33.1318 86.0098 0.196425 -5.55772 0.00953411 -12.4626 -0.601877 1.47226 0.606315 3.72374 5.57142 -0.0 0.0 -0.0 -4.8287 -3.56032 8.66681 3.95052 16.3681 -59.925 1.21146 30.9676 -0.335609 49.4227 0.92779 6.05183 -4.66792 -6.46429 29.0816 0.0 0.0 0.0 18.5934 -23.659 -11.4037 -30.6509 0.0185865 4.64808 36.8106 24.6461 -4.8405 36.0919 -0.0 -0.0 -0.0 0.0 -0.0 -6.57235 -19.021 -23.8633 -13.9342 -0.318574 -2.1094 34.7034 21.2885 4.89511 -38.3225 0.0 0.0 0.0 0.0 0.0 
1141.38 713.843 -556.474 4.47772 -57.6594 19.2691 0.120038 -0.985766 -5.95735 0.139564 -0.605388 -6.00775 0.212799 0.649776 -6.00313 0.162678 -0.304682 -6.0304 -11.2149 -11.709 -6.18595 -11.2607 -18.1133 -9.1239 -0.0 0.0 -0.0 4.22927 -28.4042 5.93448 -2.62933 -33.1949 87.5453 0.201755 -5.70754 0.0100573 -12.634 -0.612362 1.49153 0.64551 4.5333 6.15668 -0.0 0.0 -0.0 -5.1585 -3.48101 9.31813 4.32037 15.6067 -58.253 1.24102 31.5805 -0.350958 48.8641 0.888697 5.99195 -4.66714 -5.92478 29.4149 0.0 0.0 0.0 23.7793 -21.6158 -8.92974 -31.5288 -0.0175198 4.77796 34.0041 25.0351 -4.55619 35.7777 -0.0 -0.0 -0.0 0.0 -0.0 -8.10892 -19.0284 -23.4685 -12.071 -0.305846 -1.82381 33.9856 22.3284 4.86496 -38.0744 0.0 0.0 0.0 0.0 0.0 
1151.92 709.685 -557.661 5.39408 -59.2372 20.6718 0.259018 -0.744688 -6.13584 0.279877 -0.353499 -6.17062 0.32678 0.919271 -6.11221 0.274694 -0.0556602 -6.18044 -11.7439 -11.8673 -5.96977 -11.8254 -18.6481 -9.04779 -0.0 0.0 -0.0 4.03371 -28.8738 5.45936 -4.90146 -33.5017 88.5802 0.267473 -7.54779 0.0176431 -12.115 -0.580798 1.4331 1.542 4.83997 12.2581 -0.0 0.0 -0.0 -5.50503 -3.45162 9.99377 5.7576 15.7522 -57.7181 1.43491 35.4036 -0.458011 48.5463 0.866717 5.95771 -4.51712 -5.51791 28.533 0.0 0.0 0.0 27.5938 -21.3291 -7.69352 -31.7443 -0.0266863 4.80976 29.7032 27.2947 -4.13231 35.8787 -0.0 -0.0 -0.0 0.0 -0.0 -10.1511 -19.1904 -24.2424 -10.8659 -0.292671 -1.63938 35.7056 23.0339 5.07802 -37.579 0.0 0.0 0.0 0.0 0.0 
